<?xml version="1.0" encoding="UTF-8"?>
<svg width="100px" height="100px" viewBox="0 0 100 100" version="1.1" xmlns="http://www.w3.org/2000/svg" xmlns:xlink="http://www.w3.org/1999/xlink">
    <!-- Generator: Sketch 52.5 (67469) - http://www.bohemiancoding.com/sketch -->
    <title>User</title>
    <desc>Created with Sketch.</desc>
    <g id="Page-1" stroke="none" stroke-width="1" fill="none" fill-rule="evenodd">
        <g id="Artboard" transform="translate(-306.000000, -51.000000)">
            <g id="User" transform="translate(306.000000, 51.000000)">
                <circle id="Oval-Copy-2" fill="#F7F7F7" cx="50" cy="50" r="50"></circle>
                <g id="multiple-users-silhouette-copy" transform="translate(32.000000, 23.000000)" fill="#BDBDBD" fill-rule="nonzero">
                    <path d="M19.1438467,21.6206118 C25.1291622,21.6206118 29.9803014,16.7919529 29.9803014,10.8364235 C29.9803014,4.88089412 25.1282401,0.0531529412 19.1438467,0.0531529412 C13.1594534,0.0531529412 8.30554789,4.88181176 8.30554789,10.8373412 C8.30554789,16.7928706 13.1594534,21.6206118 19.1438467,21.6206118 Z M23.7404879,22.3556471 L14.5453614,22.3556471 C6.8947433,22.3556471 0.670605364,28.5506824 0.670605364,36.1644 L0.670605364,47.3551059 L0.699190294,47.5303765 L1.47374968,47.7717176 C8.774894,50.0419765 15.1179821,50.7990353 20.3388812,50.7990353 C30.5363244,50.7990353 36.4469502,47.9056941 36.8111775,47.7212471 L37.5350217,47.3569412 L37.6124777,47.3569412 L37.6124777,36.1644 C37.6152439,28.5506824 31.391106,22.3556471 23.7404879,22.3556471 Z" id="Shape"></path>
                </g>
            </g>
        </g>
    </g>
</svg>